# xmcd
#
# Track frame offsets:
#	150
#	10570
#	20222
#	34951
#	47021
#	62057
#	71695
#	84567
#	97295
#	110133
#	121313
#	133043
#	147584
#	158036
#	168637
#
# Disc length: 2425 seconds
#
# Revision: 0
# Processed by: cddbd v1.5.2PL0 Copyright (c) Steve Scherf et al.
# Submitted via: EasyCDDAExtractor 10.0.1.1
#
DISCID=dd09770f
DTITLE=Imelda May - No Turning Back
DYEAR=1900
DGENRE=
TTITLE0=Dealing With The Devil
TTITLE1=Flame Of Love
TTITLE2=Cry For Me Baby
TTITLE3=Till I Kissed You
TTITLE4=What Am I Gonna Do
TTITLE5=Once More
TTITLE6=Wild About My Lovin'
TTITLE7=No Turning Back
TTITLE8=End Of The World
TTITLE9=Y'hoo
TTITLE10=Don't Do Me No Wrong
TTITLE11=Forever You And Me
TTITLE12=Bring My Cadillac Back
TTITLE13=Lovey Dovey Lovely One
TTITLE14=Let Us Sing
EXTD=
EXTT0=
EXTT1=
EXTT2=
EXTT3=
EXTT4=
EXTT5=
EXTT6=
EXTT7=
EXTT8=
EXTT9=
EXTT10=
EXTT11=
EXTT12=
EXTT13=
EXTT14=
PLAYORDER=
